# File created by Blade
# Date/Time:  Mon Sep 22 15:39:46 2014
# Frame Rate: 120.000 fps
#------------------------------------------------------
:FULLY-SPECIFIED
:DEGREES
4319
root 1.797945 37.145961 2.192562 -0.892143 2.769844 2.797847
RightUpLeg 9.719273 -5.429857 -3.571748
RightLeg -5.596267 -0.000000 0.000000
RightFoot -13.974717 -19.709292 17.567009
RightToeBase 15.890866 -0.000000 -0.000000
LeftUpLeg 5.585614 0.337890 1.432750
LeftLeg -1.448720 -0.000000 0.000000
LeftFoot -7.367757 10.529708 -18.027499
LeftToeBase 7.355074 -0.000000 -0.000000
Spine 5.292877 -8.877450 -2.888853
RightShoulder -5.050673 -13.300930 -28.314262
RightArm -170.404462 152.757148 -148.501409
RightForeArm 12.442090 -0.000000 12.670236
RightHand -0.567312 -0.000000 -0.365715
RightHandThumb1 -24.326973 -0.000000 -32.862282
LeftShoulder -19.407901 32.895882 12.926325
LeftArm 41.662116 -34.487671 -50.859164
LeftForeArm 31.945803 -0.000000 12.553100
LeftHand -17.721471 -0.000000 -4.455403
LeftHandThumb1 -26.253704 0.000000 33.147579
Head -8.103193 10.385487 0.466854
4320
root 1.805720 37.144966 2.190163 -0.841359 3.006643 2.816613
RightUpLeg 9.702390 -5.519714 -3.590790
RightLeg -5.574265 -0.000000 0.000000
RightFoot -14.059626 -19.787897 17.616913
RightToeBase 15.893937 -0.000000 -0.000000
LeftUpLeg 5.524647 0.267189 1.414114
LeftLeg -1.498465 -0.000000 0.000000
LeftFoot -7.279376 10.396482 -17.964191
LeftToeBase 7.378503 -0.000000 -0.000000
Spine 5.277363 -9.081055 -2.835655
RightShoulder -5.136845 -13.261169 -28.339931
RightArm -170.746803 152.728118 -148.814463
RightForeArm 12.129304 -0.000000 12.704312
RightHand -0.343782 -0.000000 -0.343892
RightHandThumb1 -24.326973 -0.000000 -32.862282
LeftShoulder -19.494239 32.916613 13.032898
LeftArm 41.624986 -35.381355 -50.770053
LeftForeArm 32.201682 -0.000000 11.954405
LeftHand -17.751875 -0.000000 -4.260808
LeftHandThumb1 -26.253704 0.000000 33.147579
Head -8.304868 10.561818 0.492925
4321
root 1.813928 37.143611 2.188709 -0.785796 3.217001 2.845350
RightUpLeg 9.687378 -5.561173 -3.613151
RightLeg -5.582987 -0.000000 0.000000
RightFoot -14.130345 -19.929286 17.658076
RightToeBase 15.930161 -0.000000 -0.000000
LeftUpLeg 5.470228 0.200398 1.383777
LeftLeg -1.561588 -0.000000 0.000000
LeftFoot -7.184996 10.272175 -17.942021
LeftToeBase 7.338376 -0.000000 -0.000000
Spine 5.256122 -9.262767 -2.807846
RightShoulder -5.238785 -13.177561 -28.312805
RightArm -171.109984 152.795799 -149.226292
RightForeArm 11.957365 -0.000000 12.723675
RightHand -0.228850 -0.000000 -0.299021
RightHandThumb1 -24.326973 -0.000000 -32.862282
LeftShoulder -19.621170 32.946170 13.178359
LeftArm 41.616279 -36.200278 -50.753049
LeftForeArm 32.737585 -0.000000 11.429710
LeftHand -17.786350 -0.000000 -4.398719
LeftHandThumb1 -26.253704 0.000000 33.147579
Head -8.491082 10.602491 0.501982
4322
root 1.822006 37.142282 2.187707 -0.731709 3.404997 2.858954
RightUpLeg 9.666495 -5.568073 -3.617240
RightLeg -5.585648 -0.000000 0.000000
RightFoot -14.146106 -20.095227 17.629866
RightToeBase 15.792528 -0.000000 -0.000000
LeftUpLeg 5.418999 0.116082 1.367819
LeftLeg -1.621104 -0.000000 0.000000
LeftFoot -7.110043 10.167913 -17.972897
LeftToeBase 7.286827 -0.000000 -0.000000
Spine 5.223656 -9.465136 -2.749047
RightShoulder -5.293766 -13.098694 -28.333164
RightArm -171.446283 152.670720 -149.560327
RightForeArm 11.673624 -0.000000 12.740975
RightHand -0.094511 0.000000 -0.315195
RightHandThumb1 -24.326973 -0.000000 -32.862282
LeftShoulder -19.800899 33.055920 13.239564
LeftArm 41.769062 -37.158040 -50.906788
LeftForeArm 33.118935 -0.000000 10.889967
LeftHand -17.994829 0.000000 -4.330305
LeftHandThumb1 -26.253704 0.000000 33.147579
Head -8.643000 10.697165 0.485068
4323
root 1.828990 37.140815 2.188196 -0.697656 3.560888 2.873935
RightUpLeg 9.662328 -5.555502 -3.624465
RightLeg -5.583897 -0.000000 0.000000
RightFoot -14.219142 -20.216112 17.685517
RightToeBase 15.787162 -0.000000 -0.000000
LeftUpLeg 5.398164 0.038284 1.349054
LeftLeg -1.680362 -0.000000 0.000000
LeftFoot -7.071183 10.104079 -17.921218
LeftToeBase 7.373001 -0.000000 -0.000000
Spine 5.209315 -9.637474 -2.701290
RightShoulder -5.340060 -12.978441 -28.378690
RightArm -171.829819 152.579537 -149.883118
RightForeArm 11.465618 -0.000000 12.790896
RightHand -0.096285 0.000000 -0.485663
RightHandThumb1 -24.326973 -0.000000 -32.862282
LeftShoulder -19.983743 33.198940 13.300545
LeftArm 41.964669 -38.118546 -51.095857
LeftForeArm 33.445350 -0.000000 10.322716
LeftHand -18.177571 -0.000000 -4.384559
LeftHandThumb1 -26.253704 0.000000 33.147579
Head -8.764483 10.794452 0.501023
4324
root 1.835264 37.139356 2.188828 -0.681999 3.686646 2.889276
RightUpLeg 9.671291 -5.526239 -3.633263
RightLeg -5.582988 -0.000000 0.000000
RightFoot -14.286997 -20.349096 17.694111
RightToeBase 15.848497 -0.000000 -0.000000
LeftUpLeg 5.408136 -0.043431 1.328977
LeftLeg -1.762431 -0.000000 0.000000
LeftFoot -7.008759 10.053551 -17.979308
LeftToeBase 7.345918 -0.000000 -0.000000
Spine 5.215092 -9.789109 -2.661875
RightShoulder -5.359750 -12.866179 -28.423871
RightArm -172.226566 152.410165 -150.196827
RightForeArm 11.168289 -0.000000 12.857021
RightHand -0.035903 0.000000 -0.642508
RightHandThumb1 -24.326973 -0.000000 -32.862282
LeftShoulder -20.125657 33.272342 13.374097
LeftArm 42.041547 -39.037108 -51.172839
LeftForeArm 33.764723 -0.000000 9.749065
LeftHand -18.290356 -0.000000 -4.281621
LeftHandThumb1 -26.253704 0.000000 33.147579
Head -8.871161 10.962375 0.530406
4325
root 1.842698 37.138576 2.188694 -0.656011 3.784621 2.899861
RightUpLeg 9.661146 -5.506530 -3.641302
RightLeg -5.577944 -0.000000 0.000000
RightFoot -14.333139 -20.446734 17.746064
RightToeBase 15.808373 -0.000000 -0.000000
LeftUpLeg 5.403299 -0.108365 1.310074
LeftLeg -1.828944 -0.000000 0.000000
LeftFoot -6.956027 10.034605 -17.944497
LeftToeBase 7.311283 -0.000000 -0.000000
Spine 5.207463 -9.911700 -2.616388
RightShoulder -5.397410 -12.780492 -28.471894
RightArm -172.600927 152.200465 -150.498643
RightForeArm 11.021489 0.000000 12.914657
RightHand 0.026585 -0.000000 -0.612571
RightHandThumb1 -24.326973 -0.000000 -32.862282
LeftShoulder -20.276619 33.320141 13.480335
LeftArm 42.223445 -40.010502 -51.445390
LeftForeArm 34.266296 0.000000 9.175886
LeftHand -18.217956 -0.000000 -4.125384
LeftHandThumb1 -26.253704 0.000000 33.147579
Head -8.960366 11.051995 0.544897
4326
root 1.851950 37.138348 2.188520 -0.648405 3.860518 2.893100
RightUpLeg 9.661445 -5.490805 -3.641482
RightLeg -5.564375 -0.000000 0.000000
RightFoot -14.409126 -20.481772 17.849121
RightToeBase 15.911895 -0.000000 -0.000000
LeftUpLeg 5.415720 -0.181278 1.303181
LeftLeg -1.885802 -0.000000 0.000000
LeftFoot -6.946406 10.047186 -17.898499
LeftToeBase 7.396015 -0.000000 -0.000000
Spine 5.223124 -10.024934 -2.537613
RightShoulder -5.431774 -12.657635 -28.526256
RightArm -172.973633 151.958337 -150.829129
RightForeArm 10.885532 0.000000 12.935553
RightHand 0.023093 -0.000000 -0.522865
RightHandThumb1 -24.326973 -0.000000 -32.862282
LeftShoulder -20.430904 33.354333 13.579466
LeftArm 42.370316 -40.947616 -51.712937
LeftForeArm 34.712763 -0.000000 8.661745
LeftHand -18.361012 -0.000000 -4.009356
LeftHandThumb1 -26.253704 0.000000 33.147579
Head -9.051600 11.132548 0.517917
4327
root 1.858007 37.137151 2.195723 -0.652898 3.904192 2.899723
RightUpLeg 9.686638 -5.503023 -3.656563
RightLeg -5.564536 -0.000000 0.000000
RightFoot -14.401228 -20.510943 17.809022
RightToeBase 15.840075 -0.000000 -0.000000
LeftUpLeg 5.470685 -0.240977 1.288269
LeftLeg -1.971997 -0.000000 0.000000
LeftFoot -6.926302 10.054279 -17.889938
LeftToeBase 7.434160 -0.000000 -0.000000
Spine 5.230527 -10.107124 -2.488947
RightShoulder -5.481143 -12.556012 -28.575839
RightArm -173.310569 151.754576 -151.152645
RightForeArm 10.788445 -0.000000 12.938897
RightHand 0.110048 -0.000000 -0.419625
RightHandThumb1 -24.326973 -0.000000 -32.862282
LeftShoulder -20.539146 33.338525 13.730737
LeftArm 42.400440 -41.793919 -51.880768
LeftForeArm 34.839915 0.000000 8.152308
LeftHand -18.606547 0.000000 -3.976429
LeftHandThumb1 -26.253704 0.000000 33.147579
Head -9.113685 11.249357 0.528968
4328
root 1.864268 37.136947 2.200493 -0.660875 3.903558 2.896723
RightUpLeg 9.701312 -5.480856 -3.661564
RightLeg -5.561102 -0.000000 0.000000
RightFoot -14.395803 -20.539168 17.801239
RightToeBase 15.809958 -0.000000 -0.000000
LeftUpLeg 5.524660 -0.298953 1.280281
LeftLeg -2.045775 -0.000000 0.000000
LeftFoot -6.915441 10.102814 -17.913381
LeftToeBase 7.432783 -0.000000 -0.000000
Spine 5.252399 -10.141422 -2.429097
RightShoulder -5.535317 -12.448652 -28.653304
RightArm -173.652419 151.563756 -151.443053
RightForeArm 10.709500 -0.000000 12.953842
RightHand 0.087795 -0.000000 -0.233446
RightHandThumb1 -24.326973 -0.000000 -32.862282
LeftShoulder -20.664225 33.388215 13.829749
LeftArm 42.523065 -42.741434 -52.136293
LeftForeArm 35.127317 -0.000000 7.727277
LeftHand -18.755528 -0.000000 -3.986257
LeftHandThumb1 -26.253704 0.000000 33.147579
Head -9.172149 11.301669 0.521306
4329
root 1.871037 37.136949 2.202650 -0.660463 3.872614 2.883396
RightUpLeg 9.692598 -5.454993 -3.657791
RightLeg -5.547948 -0.000000 0.000000
RightFoot -14.414673 -20.527629 17.842685
RightToeBase 15.785641 -0.000000 -0.000000
LeftUpLeg 5.561863 -0.336396 1.279350
LeftLeg -2.107450 -0.000000 0.000000
LeftFoot -6.912559 10.149847 -17.976795
LeftToeBase 7.368842 -0.000000 -0.000000
Spine 5.266064 -10.139824 -2.355431
RightShoulder -5.594199 -12.321608 -28.720989
RightArm -173.989470 151.468890 -151.774581
RightForeArm 10.789677 0.000000 12.897771
RightHand 0.198186 -0.000000 0.010229
RightHandThumb1 -24.326973 -0.000000 -32.862282
LeftShoulder -20.758199 33.349529 13.975398
LeftArm 42.546453 -43.581546 -52.314382
LeftForeArm 35.425522 -0.000000 7.282990
LeftHand -18.864821 0.000000 -3.751082
LeftHandThumb1 -26.253704 0.000000 33.147579
Head -9.225481 11.336135 0.532712
